<?xml version="1.0" encoding="utf-8"?>
<!-- Svg Vector Icons : http://www.onlinewebfonts.com/icon -->
<!DOCTYPE svg PUBLIC "-//W3C//DTD SVG 1.1//EN" "http://www.w3.org/Graphics/SVG/1.1/DTD/svg11.dtd">
<svg version="1.1" xmlns="http://www.w3.org/2000/svg" xmlns:xlink="http://www.w3.org/1999/xlink" x="0px" y="0px" viewBox="0 0 1000 1000" enable-background="new 0 0 1000 1000" xml:space="preserve">
<metadata> Svg Vector Icons : http://www.onlinewebfonts.com/icon </metadata>
<g><g transform="translate(0.000000,512.000000) scale(0.100000,-0.100000)"><path d="M5344.5,5007c-796.3-80.4-1479.6-388.6-2053.8-924.5c-246.9-229.7-516.8-589.5-660.4-872.8l-59.3-116.8l137.8-61.3c74.7-34.5,139.7-53.6,143.6-44c17.2,53.6,214.4,377.1,304.3,499.6c239.3,325.4,696.7,717.8,1043.2,893.9c467,237.3,993.4,348.4,1533.2,327.3c470.9-19.1,859.4-116.8,1267.1-319.6c298.6-149.3,547.4-327.3,784.8-564.6c407.7-409.6,708.2-960.9,821.1-1506.4c38.3-191.4,68.9-440.2,68.9-580c0-109.1,21-158.9,459.4-1110.2C9436.8-28.9,9593.7-388.8,9593.7-429v-63.2h-392.4c-415.4,0-468.9-9.6-505.3-90c-13.4-30.6-21-291-21-807.8c0-710.1-1.9-771.3-38.3-884.3c-72.7-229.7-246.9-403.9-476.6-476.6c-112.9-36.4-174.2-38.3-874.7-38.3h-754.2v-153.1v-153.1h153.1h153.1v-842.2v-842.2h153.1h153.1v840.3v840.3l484.3,7.7c436.4,7.6,493.8,13.4,595.3,49.7c331.1,122.5,583.8,373.2,702.4,694.8c42.1,118.7,44,145.5,51.7,836.5l5.7,712h390.5c245,0,407.7,7.6,436.4,21c70.8,32.6,90,95.7,90,291v176.1l-457.5,987.6c-453.6,980-455.5,989.6-468.9,1148.4c-72.7,899.6-407.7,1627-1029.8,2229.9c-298.6,289-543.6,459.4-920.7,639.3C6504.4,4941.9,5867.1,5060.6,5344.5,5007z"/><path d="M1516.4,3454.7c-36.4-21.1-91.9-68.9-124.4-107.2c-53.6-68.9-57.4-82.3-63.2-269.9l-7.7-197.1l-197.1-7.7c-187.6-5.7-201-9.6-269.9-63.2C739.3,2715.8,712.5,2645,712.5,2444v-176.1l-199.1-7.7c-189.5-5.7-202.9-9.6-271.8-63.2C109.6,2089.9,100,2051.6,100,1651.6s9.6-438.3,141.6-545.5c68.9-53.6,82.3-57.4,269.9-63.2l197.1-7.7l7.7-197.1c5.7-187.6,9.6-201,63.2-269.9c93.8-114.8,164.6-141.6,365.6-141.6h176.1l7.7-199.1c5.7-189.5,9.6-202.9,63.2-271.8c103.4-124.4,158.9-143.6,415.4-137.8c214.4,5.7,223.9,7.6,294.8,63.2C2239.9-6,2243.7,13.2,2243.7,554.9v484.2h1071.9h1071.9V554.9c0-541.7,3.8-560.8,141.6-673.7c70.8-55.5,80.4-57.4,294.8-63.2c256.5-5.8,312,13.4,415.4,137.8c53.6,68.9,57.4,82.3,63.2,271.8l7.7,199.1h176.1c201,0,271.8,26.8,365.6,141.6c53.6,68.9,57.4,82.3,63.2,269.9l7.7,197.1l197.1,7.7c187.6,5.7,201,9.6,269.9,63.2c132.1,107.2,141.7,145.5,141.7,545.5s-9.6,438.3-141.7,545.5c-68.9,53.6-82.3,57.4-269.9,63.2l-197.1,7.7l-7.7,197.1c-5.7,187.6-9.6,201-63.2,269.9c-93.8,114.8-164.6,141.6-365.6,141.6h-176.1l-7.7,199.1c-5.7,189.5-9.6,202.9-63.2,271.8c-103.4,124.4-158.9,143.6-415.4,137.8c-214.4-5.7-223.9-7.7-294.8-63.2c-137.8-112.9-141.6-132.1-141.6-673.7v-484.3H3315.6H2243.7v484.3c0,541.7-3.8,560.8-141.6,673.7c-70.8,55.5-80.4,57.4-294.8,63.2C1615.9,3491,1573.8,3485.3,1516.4,3454.7z M1937.5,1651.6V120.4h-153.1h-153.1v1531.3v1531.2h153.1h153.1V1651.6z M5000,1651.6V120.4h-153.1h-153.1v1531.3v1531.2h153.1H5000V1651.6z M1325,1651.6V732.9h-153.1h-153.1v918.8v918.8h153.1H1325V1651.6z M5612.5,1651.6V732.9h-153.1h-153.1v918.8v918.8h153.1h153.1V1651.6z M712.5,1651.6v-306.3H559.4H406.2v306.3v306.3h153.1h153.1V1651.6z M4387.5,1651.6v-306.3H3315.6H2243.7v306.3v306.3h1071.9h1071.9V1651.6z M6225,1651.6v-306.3h-153.1h-153.1v306.3v306.3h153.1H6225V1651.6z"/><path d="M2661,114.6c-61.2-23-111-51.7-111-65.1c0-42.1,126.3-373.2,346.4-909.2c340.7-828.8,428.8-1087.2,520.6-1508.3c36.4-168.4,38.3-260.3,45.9-1297.7l7.7-1114h153.1H3775v985.7c0,1006.8-9.6,1207.8-78.5,1537c-80.4,392.4-195.2,729.2-505.3,1477.7c-103.4,246.9-227.8,557-277.5,689.1C2860.1,49.6,2812.2,151,2796.9,151C2781.6,152.9,2720.4,135.7,2661,114.6z"/></g></g>
</svg>