<svg id="Capa_1" enable-background="new 0 0 512 512" height="512" viewBox="0 0 512 512" width="512" xmlns="http://www.w3.org/2000/svg"><g><path d="m286.983 369.131-6.135-144.749h68.429v-57.07h-78.274v-66.87c20.547-6.775 35.423-26.141 35.423-48.927 0-28.406-23.109-51.515-51.514-51.515s-51.514 23.109-51.514 51.514c0 23.583 15.935 43.502 37.599 49.59v66.208h-80.449v57.07h68.46l-6.085 143.992c13.062 5.594 24.441 9.669 32.305 12.276 7.758-2.444 18.922-6.256 31.755-11.519zm-53.579-317.617c0-11.86 9.648-21.508 21.508-21.508s21.508 9.648 21.508 21.508-9.648 21.509-21.508 21.509-21.508-9.649-21.508-21.509z"/><path d="m254.998 410.996c-25.829-7.768-175.842-57.322-177.688-159.464h-30.035c.316 41.867 11.103 81.526 32.088 117.903 16.875 29.252 40.311 56.364 69.657 80.582 49.538 40.882 105.689 61.983 105.689 61.983s56.846-20.024 107.013-60.463c29.721-23.958 53.455-51.036 70.543-80.481 21.234-36.589 32.146-76.794 32.459-119.524h-30.034c-1.827 104.428-153.685 152.077-179.692 159.464z"/></g></svg>