<?xml version="1.0" encoding="utf-8"?>
<!-- Generator: Adobe Illustrator 23.0.3, SVG Export Plug-In . SVG Version: 6.00 Build 0)  -->
<svg version="1.1"  xmlns="http://www.w3.org/2000/svg" xmlns:xlink="http://www.w3.org/1999/xlink" x="0px" y="0px"
	 viewBox="0 0 1920 1080" style="enable-background:new 0 0 1920 1080;" xml:space="preserve">
<style type="text/css">
	.st0{fill-rule:evenodd;clip-rule:evenodd;fill:#072E66;}
	.st1{fill-rule:evenodd;clip-rule:evenodd;fill:#0C53A8;}
	.st2{fill-rule:evenodd;clip-rule:evenodd;fill:url(#SVGID_1_);}
	.st3{fill-rule:evenodd;clip-rule:evenodd;fill:#04285B;}
	.st4{display:none;fill-rule:evenodd;clip-rule:evenodd;fill:#557DB7;}
	.st5{fill-rule:evenodd;clip-rule:evenodd;fill:#92B8F4;}
	.st6{fill-rule:evenodd;clip-rule:evenodd;fill:url(#SVGID_2_);}
	.st7{fill-rule:evenodd;clip-rule:evenodd;fill:url(#SVGID_3_);}
	.st8{display:none;fill-rule:evenodd;clip-rule:evenodd;fill:#04285B;}
	.st9{fill-rule:evenodd;clip-rule:evenodd;fill:#0A439E;}
	.st10{fill-rule:evenodd;clip-rule:evenodd;fill:#1659C4;}
	.st11{fill-rule:evenodd;clip-rule:evenodd;fill:url(#SVGID_4_);}
	.st12{fill-rule:evenodd;clip-rule:evenodd;fill:url(#SVGID_5_);}
	.st13{fill-rule:evenodd;clip-rule:evenodd;fill:url(#SVGID_6_);}
	.st14{fill:#072E66;}
	.st15{font-family:'RNSMiles-XBold';}
	.st16{font-size:177.8179px;}
	.st17{fill:#92B8F4;}
	.st18{fill-rule:evenodd;clip-rule:evenodd;fill:#FFFFFF;}
	.st19{display:none;}
	.st20{display:inline;}
	.st21{font-size:22.9418px;}
	.st22{fill:#0A439E;}
	.st23{font-family:'Cunia';}
	.st24{font-size:29.1185px;}
	.st25{font-size:33px;}
	.st26{font-size:32px;}
</style>
<g id="Capa_1">
	<g>
		<g>
			<path class="st0" d="M1192.94,240.62c-162.95,71.53-271.99,333.24-57.71,443.26c-28.37-57.17-40.51-115.06-25.72-174.16
				c-22.51,8.89-42.18,20.77-54.94,39.08c21.57-59.3,109.84-83.15,155.71-122.95C1270.81,373.34,1293.55,300.82,1192.94,240.62z"/>
			<path class="st1" d="M1054.52,547.83c19.28-10.35,35.8-13.24,50.18-10.31c1.25-9.17,3.1-18.35,5.62-27.55
				C1087.61,518.37,1067.68,529.81,1054.52,547.83z"/>
			
				<linearGradient id="SVGID_1_" gradientUnits="userSpaceOnUse" x1="1556.9281" y1="-1069.4978" x2="1556.9281" y2="-620.2848" gradientTransform="matrix(0.9995 0.032 -0.032 0.9995 -435.8519 1048.6282)">
				<stop  offset="0" style="stop-color:#FFFFFF"/>
				<stop  offset="1" style="stop-color:#FFFFFF;stop-opacity:0"/>
			</linearGradient>
			<path class="st2" d="M1196.49,267.36c89.56,111.75-120.19,151.11-154.56,270.31c16.61-42.74,46.38-60.05,85.98-81.44
				c44.14-23.86,108.45-56.55,112.79-113.67C1243.1,310.72,1220.95,285.48,1196.49,267.36z"/>
		</g>
		<g>
			<path class="st3" d="M1098.04,216.32c16.43,13.99,18.5,46.36,10.75,81.7c17.96-17.33,37.76-32.41,58.76-44.45
				C1175.98,186.88,1138.75,188.11,1098.04,216.32z"/>
			<path class="st4" d="M931.02,433.62c-11.75,49.85,7.36,88.26,84.06,54.38c1.14-18.31,4.55-36.67,9.93-54.73
				C974.92,456.59,945.37,452.21,931.02,433.62z"/>
			<path class="st5" d="M1041.15,137.59c-95.47,26.67-200.12,162.37-221.89,251.24c-22.7,92.69,54.29,163.07,152.15,128.87
				c12.32-2.31,26.68-7.15,43.25-14.98c-0.03-4.9,0.11-9.8,0.42-14.72c-84.59,37.37-99.13-13.2-79.49-70.04
				c27.46-79.48,103.67-171.32,179.44-211.49c33.36-17.69,59.66-9.46,52.52,47.09c5.17-2.96,10.41-5.73,15.71-8.32
				c1.63-15.39,0.98-29.48-2.38-40.79C1173.2,146.88,1107.74,118.98,1041.15,137.59z"/>
			<path class="st5" d="M1108.29,189.5c-81.96,43.4-171.24,154.19-194.12,236.91c-14.8,53.48-3.1,102.59,57.24,91.28
				c12.32-2.31,26.68-7.15,43.25-14.98c-0.03-4.9,0.11-9.8,0.42-14.72c-84.59,37.37-99.13-13.2-79.49-70.04
				c27.46-79.48,103.67-171.32,179.44-211.49c33.36-17.69,59.66-9.46,52.52,47.09c5.17-2.96,10.41-5.73,15.71-8.32
				c1.63-15.39,0.98-29.48-2.38-40.79C1173.09,178.24,1150.72,167.03,1108.29,189.5z"/>
			
				<linearGradient id="SVGID_2_" gradientUnits="userSpaceOnUse" x1="1400.8038" y1="-1370.4576" x2="1400.8038" y2="-646.1338" gradientTransform="matrix(0.9995 0.032 -0.032 0.9995 -435.8519 1048.6282)">
				<stop  offset="0" style="stop-color:#FFFFFF"/>
				<stop  offset="1" style="stop-color:#FFFFFF;stop-opacity:0"/>
			</linearGradient>
			<path class="st6" d="M1043.56,146.19c-51.87,14.5-101.07,60.25-134.15,99.45c-41.7,49.4-99.84,137.61-81.44,203.67
				c11.88,42.63,49.07,67.58,92.4,68.24c-93.04-31.57-69.42-125.34-10.3-212.61c66.86-98.71,177.81-187.32,245.04-135.89
				C1127.88,139.13,1080.39,135.89,1043.56,146.19z"/>
			
				<radialGradient id="SVGID_3_" cx="1415.2931" cy="-761.7787" r="251.6561" gradientTransform="matrix(0.9995 0.032 -0.032 0.9995 -435.8519 1048.6282)" gradientUnits="userSpaceOnUse">
				<stop  offset="0" style="stop-color:#FFFFFF"/>
				<stop  offset="0.33" style="stop-color:#FFFFFF"/>
				<stop  offset="0.66" style="stop-color:#FFFFFF;stop-opacity:0"/>
				<stop  offset="1" style="stop-color:#FFFFFF;stop-opacity:0"/>
			</radialGradient>
			<path class="st7" d="M1108.29,189.5c-81.96,43.4-171.24,154.19-194.12,236.91c-9.7,35.08-8.01,68.27,11.32,83.77
				c-15.06-16.82-15.74-47.38-6.84-79.53c22.88-82.72,112.15-193.5,194.12-236.91c28.17-14.93,47.51-15,59.6-5.68
				C1160.83,174.76,1140.26,172.57,1108.29,189.5z"/>
		</g>
		<g>
			<path class="st3" d="M911.74,144.86c21.12,0.82,35.3,14.36,36.23,46.19c16.98-15.7,34.73-29.29,52.68-39.65
				C995.43,108.01,955.83,115.98,911.74,144.86z"/>
			<path class="st8" d="M750.38,394.82c2.82,29.4,22.48,48.47,70.37,43.66c-1.93-13.77-1.48-28.63,1.72-44.19
				C790.74,401.18,767.22,400.72,750.38,394.82z"/>
			<path class="st9" d="M780.53,158.55c-17.87,16.88-32.44,35.64-41.36,55c4.12-16.63,11.88-33.58,22.23-49.93
				C581.27,220.07,583.92,479.6,809.73,458c4.75-0.35,9.75-0.91,15-1.71c-1.78-5.7-3.12-11.65-3.98-17.81
				c-129.05,12.97-53.14-147.48,5.02-216.21C887,149.93,991.93,78.82,1000.65,151.4c3.02-1.75,6.04-3.4,9.06-4.95
				c-0.91-8.2-2.85-14.95-5.68-20.38C973.55,54.45,851.18,91.82,780.53,158.55z"/>
			<path class="st10" d="M814.36,211.68c-64.54,76.27-143.87,256.45-4.62,246.32h0c4.75-0.35,9.75-0.91,15-1.71
				c-1.78-5.7-3.12-11.65-3.98-17.81c-129.05,12.97-53.14-147.48,5.02-216.21C887,149.93,991.93,78.82,1000.65,151.4
				c3.02-1.75,6.04-3.4,9.06-4.95c-0.91-8.2-2.85-14.95-5.68-20.38C977.96,76.09,876.41,138.35,814.36,211.68z"/>
			
				<radialGradient id="SVGID_4_" cx="1234.1536" cy="-816.488" r="283.7952" gradientTransform="matrix(1 3.025385e-04 -3.025385e-04 1 -445.9405 1070.4175)" gradientUnits="userSpaceOnUse">
				<stop  offset="0" style="stop-color:#FFFFFF"/>
				<stop  offset="0.33" style="stop-color:#FFFFFF"/>
				<stop  offset="0.66" style="stop-color:#FFFFFF;stop-opacity:0"/>
				<stop  offset="1" style="stop-color:#FFFFFF;stop-opacity:0"/>
			</radialGradient>
			<path class="st11" d="M814.36,211.68c-56.87,67.2-125.22,215.07-45.42,242.36c-70.46-32.47-4.16-174.54,51.26-240.02
				c51.39-60.72,129.84-113.86,170.11-101.96C952.26,92.44,868.36,147.87,814.36,211.68z"/>
			
				<linearGradient id="SVGID_5_" gradientUnits="userSpaceOnUse" x1="927.403" y1="-760.1966" x2="1183.0525" y2="-760.1966" gradientTransform="matrix(1 3.025385e-04 -3.025385e-04 1 -445.9405 1070.4175)">
				<stop  offset="0" style="stop-color:#FFFFFF"/>
				<stop  offset="1" style="stop-color:#FFFFFF;stop-opacity:0"/>
			</linearGradient>
			<path class="st12" d="M741.72,180.65c-35.85,16.23-65.73,43.03-83.71,78.94c-17.82,35.57-22.42,78.58-6.93,115.84
				c13.22,31.82,38.69,53.66,70.66,65.08C632.82,381.97,644.1,251.76,741.72,180.65z"/>
			
				<linearGradient id="SVGID_6_" gradientUnits="userSpaceOnUse" x1="1298.8718" y1="-1124.5138" x2="1298.8718" y2="-891.7271" gradientTransform="matrix(1 3.025385e-04 -3.025385e-04 1 -445.9405 1070.4175)">
				<stop  offset="0" style="stop-color:#FFFFFF"/>
				<stop  offset="1" style="stop-color:#FFFFFF;stop-opacity:0"/>
			</linearGradient>
			<path class="st13" d="M824.35,135.5c-35.86,23.4-62.36,49.9-80.47,89.15c73.6-85.56,146.44-124.07,218.66-124.9
				C919.56,86.33,859.66,112.46,824.35,135.5z"/>
		</g>
	</g>
</g>
<g id="Capa_2">
	<text transform="matrix(1.2058 0 0 1 577.4429 828.8105)"><tspan x="0" y="0" class="st14 st15 st16">M</tspan><tspan x="155.06" y="0" class="st17 st15 st16">A</tspan><tspan x="276.68" y="0" class="st14 st15 st16">GIN</tspan></text>
	<path class="st18" d="M1081,699c0,0,9.81,31,38,32l-38-1V699z"/>
</g>
<g id="Capa_4" class="st19">
	<text transform="matrix(1.3423 0 0 1 1004.8574 866.751)" class="st20"><tspan x="0" y="0" class="st14 st15 st21">powered by</tspan><tspan x="113.91" y="0" class="st22 st23 st24"> </tspan></text>
	<text transform="matrix(1.2058 0 0 1 1154.8574 871.7139)" class="st20"><tspan x="0" y="0" class="st22 st23 st25"> </tspan><tspan x="6.93" y="0" class="st17 st23 st26">venki</tspan></text>
</g>
</svg>
